# This file uses centimeters as units for non-parametric coordinates.

mtllib Paper Vent.mtl
g default
v -0.500000 -0.025000 2.500000
v -0.300000 -0.025000 2.500000
v -0.100000 -0.025000 2.500000
v 0.100000 -0.025000 2.500000
v 0.300000 -0.025000 2.500000
v 0.500000 -0.025000 2.500000
v -0.500000 0.025000 2.500000
v -0.300000 0.025000 2.500000
v -0.100000 0.025000 2.500000
v 0.100000 0.025000 2.500000
v 0.300000 0.025000 2.500000
v 0.500000 0.025000 2.500000
v -0.500000 0.025000 2.000000
v -0.300000 0.025000 2.000000
v -0.100000 0.025000 2.000000
v 0.100000 0.025000 2.000000
v 0.300000 0.025000 2.000000
v 0.500000 0.025000 2.000000
v -0.500000 0.025000 1.500000
v -0.300000 0.025000 1.500000
v -0.100000 0.025000 1.500000
v 0.100000 0.025000 1.500000
v 0.300000 0.025000 1.500000
v 0.500000 0.025000 1.500000
v -0.500000 0.025000 1.000000
v -0.300000 0.025000 1.000000
v -0.100000 0.025000 1.000000
v 0.100000 0.025000 1.000000
v 0.300000 0.025000 1.000000
v 0.500000 0.025000 1.000000
v -0.500000 0.025000 0.500000
v -0.300000 0.025000 0.500000
v -0.100000 0.025000 0.500000
v 0.100000 0.025000 0.500000
v 0.300000 0.025000 0.500000
v 0.500000 0.025000 0.500000
v -0.500000 0.025000 0.000000
v -0.300000 0.025000 0.000000
v -0.100000 0.025000 0.000000
v 0.100000 0.025000 0.000000
v 0.300000 0.025000 0.000000
v 0.500000 0.025000 0.000000
v -0.500000 0.025000 -0.500000
v -0.300000 0.025000 -0.500000
v -0.100000 0.025000 -0.500000
v 0.100000 0.025000 -0.500000
v 0.300000 0.025000 -0.500000
v 0.500000 0.025000 -0.500000
v -0.500000 0.025000 -1.000000
v -0.300000 0.025000 -1.000000
v -0.100000 0.025000 -1.000000
v 0.100000 0.025000 -1.000000
v 0.300000 0.025000 -1.000000
v 0.500000 0.025000 -1.000000
v -0.500000 0.025000 -1.500000
v -0.300000 0.025000 -1.500000
v -0.100000 0.025000 -1.500000
v 0.100000 0.025000 -1.500000
v 0.300000 0.025000 -1.500000
v 0.500000 0.025000 -1.500000
v -0.500000 0.025000 -2.000000
v -0.300000 0.025000 -2.000000
v -0.100000 0.025000 -2.000000
v 0.100000 0.025000 -2.000000
v 0.300000 0.025000 -2.000000
v 0.500000 0.025000 -2.000000
v -0.500000 0.025000 -2.500000
v -0.300000 0.025000 -2.500000
v -0.100000 0.025000 -2.500000
v 0.100000 0.025000 -2.500000
v 0.300000 0.025000 -2.500000
v 0.500000 0.025000 -2.500000
v -0.500000 -0.025000 -2.500000
v -0.300000 -0.025000 -2.500000
v -0.100000 -0.025000 -2.500000
v 0.100000 -0.025000 -2.500000
v 0.300000 -0.025000 -2.500000
v 0.500000 -0.025000 -2.500000
v -0.500000 -0.025000 -2.000000
v -0.300000 -0.025000 -2.000000
v -0.100000 -0.025000 -2.000000
v 0.100000 -0.025000 -2.000000
v 0.300000 -0.025000 -2.000000
v 0.500000 -0.025000 -2.000000
v -0.500000 -0.025000 -1.500000
v -0.300000 -0.025000 -1.500000
v -0.100000 -0.025000 -1.500000
v 0.100000 -0.025000 -1.500000
v 0.300000 -0.025000 -1.500000
v 0.500000 -0.025000 -1.500000
v -0.500000 -0.025000 -1.000000
v -0.300000 -0.025000 -1.000000
v -0.100000 -0.025000 -1.000000
v 0.100000 -0.025000 -1.000000
v 0.300000 -0.025000 -1.000000
v 0.500000 -0.025000 -1.000000
v -0.500000 -0.025000 -0.500000
v -0.300000 -0.025000 -0.500000
v -0.100000 -0.025000 -0.500000
v 0.100000 -0.025000 -0.500000
v 0.300000 -0.025000 -0.500000
v 0.500000 -0.025000 -0.500000
v -0.500000 -0.025000 0.000000
v -0.300000 -0.025000 0.000000
v -0.100000 -0.025000 0.000000
v 0.100000 -0.025000 0.000000
v 0.300000 -0.025000 0.000000
v 0.500000 -0.025000 0.000000
v -0.500000 -0.025000 0.500000
v -0.300000 -0.025000 0.500000
v -0.100000 -0.025000 0.500000
v 0.100000 -0.025000 0.500000
v 0.300000 -0.025000 0.500000
v 0.500000 -0.025000 0.500000
v -0.500000 -0.025000 1.000000
v -0.300000 -0.025000 1.000000
v -0.100000 -0.025000 1.000000
v 0.100000 -0.025000 1.000000
v 0.300000 -0.025000 1.000000
v 0.500000 -0.025000 1.000000
v -0.500000 -0.025000 1.500000
v -0.300000 -0.025000 1.500000
v -0.100000 -0.025000 1.500000
v 0.100000 -0.025000 1.500000
v 0.300000 -0.025000 1.500000
v 0.500000 -0.025000 1.500000
v -0.500000 -0.025000 2.000000
v -0.300000 -0.025000 2.000000
v -0.100000 -0.025000 2.000000
v 0.100000 -0.025000 2.000000
v 0.300000 -0.025000 2.000000
v 0.500000 -0.025000 2.000000
vt 0.375000 0.000000
vt 0.425000 0.000000
vt 0.475000 0.000000
vt 0.525000 0.000000
vt 0.575000 0.000000
vt 0.625000 0.000000
vt 0.375000 0.250000
vt 0.425000 0.250000
vt 0.475000 0.250000
vt 0.525000 0.250000
vt 0.575000 0.250000
vt 0.625000 0.250000
vt 0.375000 0.275000
vt 0.425000 0.275000
vt 0.475000 0.275000
vt 0.525000 0.275000
vt 0.575000 0.275000
vt 0.625000 0.275000
vt 0.375000 0.300000
vt 0.425000 0.300000
vt 0.475000 0.300000
vt 0.525000 0.300000
vt 0.575000 0.300000
vt 0.625000 0.300000
vt 0.375000 0.325000
vt 0.425000 0.325000
vt 0.475000 0.325000
vt 0.525000 0.325000
vt 0.575000 0.325000
vt 0.625000 0.325000
vt 0.375000 0.350000
vt 0.425000 0.350000
vt 0.475000 0.350000
vt 0.525000 0.350000
vt 0.575000 0.350000
vt 0.625000 0.350000
vt 0.375000 0.375000
vt 0.425000 0.375000
vt 0.475000 0.375000
vt 0.525000 0.375000
vt 0.575000 0.375000
vt 0.625000 0.375000
vt 0.375000 0.400000
vt 0.425000 0.400000
vt 0.475000 0.400000
vt 0.525000 0.400000
vt 0.575000 0.400000
vt 0.625000 0.400000
vt 0.375000 0.425000
vt 0.425000 0.425000
vt 0.475000 0.425000
vt 0.525000 0.425000
vt 0.575000 0.425000
vt 0.625000 0.425000
vt 0.375000 0.450000
vt 0.425000 0.450000
vt 0.475000 0.450000
vt 0.525000 0.450000
vt 0.575000 0.450000
vt 0.625000 0.450000
vt 0.375000 0.475000
vt 0.425000 0.475000
vt 0.475000 0.475000
vt 0.525000 0.475000
vt 0.575000 0.475000
vt 0.625000 0.475000
vt 0.375000 0.500000
vt 0.425000 0.500000
vt 0.475000 0.500000
vt 0.525000 0.500000
vt 0.575000 0.500000
vt 0.625000 0.500000
vt 0.375000 0.750000
vt 0.425000 0.750000
vt 0.475000 0.750000
vt 0.525000 0.750000
vt 0.575000 0.750000
vt 0.625000 0.750000
vt 0.375000 0.775000
vt 0.425000 0.775000
vt 0.475000 0.775000
vt 0.525000 0.775000
vt 0.575000 0.775000
vt 0.625000 0.775000
vt 0.375000 0.800000
vt 0.425000 0.800000
vt 0.475000 0.800000
vt 0.525000 0.800000
vt 0.575000 0.800000
vt 0.625000 0.800000
vt 0.375000 0.825000
vt 0.425000 0.825000
vt 0.475000 0.825000
vt 0.525000 0.825000
vt 0.575000 0.825000
vt 0.625000 0.825000
vt 0.375000 0.850000
vt 0.425000 0.850000
vt 0.475000 0.850000
vt 0.525000 0.850000
vt 0.575000 0.850000
vt 0.625000 0.850000
vt 0.375000 0.875000
vt 0.425000 0.875000
vt 0.475000 0.875000
vt 0.525000 0.875000
vt 0.575000 0.875000
vt 0.625000 0.875000
vt 0.375000 0.900000
vt 0.425000 0.900000
vt 0.475000 0.900000
vt 0.525000 0.900000
vt 0.575000 0.900000
vt 0.625000 0.900000
vt 0.375000 0.925000
vt 0.425000 0.925000
vt 0.475000 0.925000
vt 0.525000 0.925000
vt 0.575000 0.925000
vt 0.625000 0.925000
vt 0.375000 0.950000
vt 0.425000 0.950000
vt 0.475000 0.950000
vt 0.525000 0.950000
vt 0.575000 0.950000
vt 0.625000 0.950000
vt 0.375000 0.975000
vt 0.425000 0.975000
vt 0.475000 0.975000
vt 0.525000 0.975000
vt 0.575000 0.975000
vt 0.625000 0.975000
vt 0.375000 1.000000
vt 0.425000 1.000000
vt 0.475000 1.000000
vt 0.525000 1.000000
vt 0.575000 1.000000
vt 0.625000 1.000000
vt 0.875000 0.000000
vt 0.850000 0.000000
vt 0.825000 0.000000
vt 0.800000 0.000000
vt 0.775000 0.000000
vt 0.750000 0.000000
vt 0.725000 0.000000
vt 0.700000 0.000000
vt 0.675000 0.000000
vt 0.650000 0.000000
vt 0.875000 0.250000
vt 0.850000 0.250000
vt 0.825000 0.250000
vt 0.800000 0.250000
vt 0.775000 0.250000
vt 0.750000 0.250000
vt 0.725000 0.250000
vt 0.700000 0.250000
vt 0.675000 0.250000
vt 0.650000 0.250000
vt 0.125000 0.000000
vt 0.150000 0.000000
vt 0.175000 0.000000
vt 0.200000 0.000000
vt 0.225000 0.000000
vt 0.250000 0.000000
vt 0.275000 0.000000
vt 0.300000 0.000000
vt 0.325000 0.000000
vt 0.350000 0.000000
vt 0.125000 0.250000
vt 0.150000 0.250000
vt 0.175000 0.250000
vt 0.200000 0.250000
vt 0.225000 0.250000
vt 0.250000 0.250000
vt 0.275000 0.250000
vt 0.300000 0.250000
vt 0.325000 0.250000
vt 0.350000 0.250000
vn 0.000000 0.000000 1.000000
vn 0.000000 0.000000 1.000000
vn 0.000000 0.000000 1.000000
vn 0.000000 0.000000 1.000000
vn 0.000000 0.000000 1.000000
vn 0.000000 0.000000 1.000000
vn 0.000000 0.000000 1.000000
vn 0.000000 0.000000 1.000000
vn 0.000000 0.000000 1.000000
vn 0.000000 0.000000 1.000000
vn 0.000000 0.000000 1.000000
vn 0.000000 0.000000 1.000000
vn 0.000000 1.000000 0.000000
vn 0.000000 1.000000 0.000000
vn 0.000000 1.000000 0.000000
vn 0.000000 1.000000 0.000000
vn 0.000000 1.000000 0.000000
vn 0.000000 1.000000 0.000000
vn 0.000000 1.000000 0.000000
vn 0.000000 1.000000 0.000000
vn 0.000000 1.000000 0.000000
vn 0.000000 1.000000 0.000000
vn 0.000000 1.000000 0.000000
vn 0.000000 1.000000 0.000000
vn 0.000000 1.000000 0.000000
vn 0.000000 1.000000 0.000000
vn 0.000000 1.000000 0.000000
vn 0.000000 1.000000 0.000000
vn 0.000000 1.000000 0.000000
vn 0.000000 1.000000 0.000000
vn 0.000000 1.000000 0.000000
vn 0.000000 1.000000 0.000000
vn 0.000000 1.000000 0.000000
vn 0.000000 1.000000 0.000000
vn 0.000000 1.000000 0.000000
vn 0.000000 1.000000 0.000000
vn 0.000000 1.000000 0.000000
vn 0.000000 1.000000 0.000000
vn 0.000000 1.000000 0.000000
vn 0.000000 1.000000 0.000000
vn 0.000000 1.000000 0.000000
vn 0.000000 1.000000 0.000000
vn 0.000000 1.000000 0.000000
vn 0.000000 1.000000 0.000000
vn 0.000000 1.000000 0.000000
vn 0.000000 1.000000 0.000000
vn 0.000000 1.000000 0.000000
vn 0.000000 1.000000 0.000000
vn 0.000000 1.000000 0.000000
vn 0.000000 1.000000 0.000000
vn 0.000000 1.000000 0.000000
vn 0.000000 1.000000 0.000000
vn 0.000000 1.000000 0.000000
vn 0.000000 1.000000 0.000000
vn 0.000000 1.000000 0.000000
vn 0.000000 1.000000 0.000000
vn 0.000000 1.000000 0.000000
vn 0.000000 1.000000 0.000000
vn 0.000000 1.000000 0.000000
vn 0.000000 1.000000 0.000000
vn 0.000000 1.000000 0.000000
vn 0.000000 1.000000 0.000000
vn 0.000000 1.000000 0.000000
vn 0.000000 1.000000 0.000000
vn 0.000000 1.000000 0.000000
vn 0.000000 1.000000 0.000000
vn 0.000000 1.000000 0.000000
vn 0.000000 1.000000 0.000000
vn 0.000000 1.000000 0.000000
vn 0.000000 1.000000 0.000000
vn 0.000000 1.000000 0.000000
vn 0.000000 1.000000 0.000000
vn 0.000000 1.000000 0.000000
vn 0.000000 1.000000 0.000000
vn 0.000000 1.000000 0.000000
vn 0.000000 1.000000 0.000000
vn 0.000000 1.000000 0.000000
vn 0.000000 1.000000 0.000000
vn 0.000000 0.000000 -1.000000
vn 0.000000 0.000000 -1.000000
vn 0.000000 0.000000 -1.000000
vn 0.000000 0.000000 -1.000000
vn 0.000000 0.000000 -1.000000
vn 0.000000 0.000000 -1.000000
vn 0.000000 0.000000 -1.000000
vn 0.000000 0.000000 -1.000000
vn 0.000000 0.000000 -1.000000
vn 0.000000 0.000000 -1.000000
vn 0.000000 0.000000 -1.000000
vn 0.000000 0.000000 -1.000000
vn 0.000000 -1.000000 0.000000
vn 0.000000 -1.000000 0.000000
vn 0.000000 -1.000000 0.000000
vn 0.000000 -1.000000 0.000000
vn 0.000000 -1.000000 0.000000
vn 0.000000 -1.000000 0.000000
vn 0.000000 -1.000000 0.000000
vn 0.000000 -1.000000 0.000000
vn 0.000000 -1.000000 0.000000
vn 0.000000 -1.000000 0.000000
vn 0.000000 -1.000000 0.000000
vn 0.000000 -1.000000 0.000000
vn 0.000000 -1.000000 0.000000
vn 0.000000 -1.000000 0.000000
vn 0.000000 -1.000000 0.000000
vn 0.000000 -1.000000 0.000000
vn 0.000000 -1.000000 0.000000
vn 0.000000 -1.000000 0.000000
vn 0.000000 -1.000000 0.000000
vn 0.000000 -1.000000 0.000000
vn 0.000000 -1.000000 0.000000
vn 0.000000 -1.000000 0.000000
vn 0.000000 -1.000000 0.000000
vn 0.000000 -1.000000 0.000000
vn 0.000000 -1.000000 0.000000
vn 0.000000 -1.000000 0.000000
vn 0.000000 -1.000000 0.000000
vn 0.000000 -1.000000 0.000000
vn 0.000000 -1.000000 0.000000
vn 0.000000 -1.000000 0.000000
vn 0.000000 -1.000000 0.000000
vn 0.000000 -1.000000 0.000000
vn 0.000000 -1.000000 0.000000
vn 0.000000 -1.000000 0.000000
vn 0.000000 -1.000000 0.000000
vn 0.000000 -1.000000 0.000000
vn 0.000000 -1.000000 0.000000
vn 0.000000 -1.000000 0.000000
vn 0.000000 -1.000000 0.000000
vn 0.000000 -1.000000 0.000000
vn 0.000000 -1.000000 0.000000
vn 0.000000 -1.000000 0.000000
vn 0.000000 -1.000000 0.000000
vn 0.000000 -1.000000 0.000000
vn 0.000000 -1.000000 0.000000
vn 0.000000 -1.000000 0.000000
vn 0.000000 -1.000000 0.000000
vn 0.000000 -1.000000 0.000000
vn 0.000000 -1.000000 0.000000
vn 0.000000 -1.000000 0.000000
vn 0.000000 -1.000000 0.000000
vn 0.000000 -1.000000 0.000000
vn 0.000000 -1.000000 0.000000
vn 0.000000 -1.000000 0.000000
vn 0.000000 -1.000000 0.000000
vn 0.000000 -1.000000 0.000000
vn 0.000000 -1.000000 0.000000
vn 0.000000 -1.000000 0.000000
vn 0.000000 -1.000000 0.000000
vn 0.000000 -1.000000 0.000000
vn 0.000000 -1.000000 0.000000
vn 0.000000 -1.000000 0.000000
vn 0.000000 -1.000000 0.000000
vn 0.000000 -1.000000 0.000000
vn 0.000000 -1.000000 0.000000
vn 0.000000 -1.000000 0.000000
vn 1.000000 0.000000 0.000000
vn 1.000000 0.000000 0.000000
vn 1.000000 0.000000 0.000000
vn 1.000000 0.000000 0.000000
vn 1.000000 0.000000 0.000000
vn 1.000000 0.000000 0.000000
vn 1.000000 0.000000 0.000000
vn 1.000000 0.000000 0.000000
vn 1.000000 0.000000 0.000000
vn 1.000000 0.000000 0.000000
vn 1.000000 0.000000 0.000000
vn 1.000000 0.000000 0.000000
vn 1.000000 0.000000 0.000000
vn 1.000000 0.000000 0.000000
vn 1.000000 0.000000 0.000000
vn 1.000000 0.000000 0.000000
vn 1.000000 0.000000 0.000000
vn 1.000000 0.000000 0.000000
vn 1.000000 0.000000 0.000000
vn 1.000000 0.000000 0.000000
vn 1.000000 0.000000 0.000000
vn 1.000000 0.000000 0.000000
vn -1.000000 0.000000 0.000000
vn -1.000000 0.000000 0.000000
vn -1.000000 0.000000 0.000000
vn -1.000000 0.000000 0.000000
vn -1.000000 0.000000 0.000000
vn -1.000000 0.000000 0.000000
vn -1.000000 0.000000 0.000000
vn -1.000000 0.000000 0.000000
vn -1.000000 0.000000 0.000000
vn -1.000000 0.000000 0.000000
vn -1.000000 0.000000 0.000000
vn -1.000000 0.000000 0.000000
vn -1.000000 0.000000 0.000000
vn -1.000000 0.000000 0.000000
vn -1.000000 0.000000 0.000000
vn -1.000000 0.000000 0.000000
vn -1.000000 0.000000 0.000000
vn -1.000000 0.000000 0.000000
vn -1.000000 0.000000 0.000000
vn -1.000000 0.000000 0.000000
vn -1.000000 0.000000 0.000000
vn -1.000000 0.000000 0.000000
s 1
g pCube1
usemtl initialShadingGroup
f 1/1/1 2/2/2 8/8/3 7/7/4
f 2/2/2 3/3/5 9/9/6 8/8/3
f 3/3/5 4/4/7 10/10/8 9/9/6
f 4/4/7 5/5/9 11/11/10 10/10/8
f 5/5/9 6/6/11 12/12/12 11/11/10
s 2
f 7/7/13 8/8/14 14/14/15 13/13/16
f 8/8/14 9/9/17 15/15/18 14/14/15
f 9/9/17 10/10/19 16/16/20 15/15/18
f 10/10/19 11/11/21 17/17/22 16/16/20
f 11/11/21 12/12/23 18/18/24 17/17/22
f 13/13/16 14/14/15 20/20/25 19/19/26
f 14/14/15 15/15/18 21/21/27 20/20/25
f 15/15/18 16/16/20 22/22/28 21/21/27
f 16/16/20 17/17/22 23/23/29 22/22/28
f 17/17/22 18/18/24 24/24/30 23/23/29
f 19/19/26 20/20/25 26/26/31 25/25/32
f 20/20/25 21/21/27 27/27/33 26/26/31
f 21/21/27 22/22/28 28/28/34 27/27/33
f 22/22/28 23/23/29 29/29/35 28/28/34
f 23/23/29 24/24/30 30/30/36 29/29/35
f 25/25/32 26/26/31 32/32/37 31/31/38
f 26/26/31 27/27/33 33/33/39 32/32/37
f 27/27/33 28/28/34 34/34/40 33/33/39
f 28/28/34 29/29/35 35/35/41 34/34/40
f 29/29/35 30/30/36 36/36/42 35/35/41
f 31/31/38 32/32/37 38/38/43 37/37/44
f 32/32/37 33/33/39 39/39/45 38/38/43
f 33/33/39 34/34/40 40/40/46 39/39/45
f 34/34/40 35/35/41 41/41/47 40/40/46
f 35/35/41 36/36/42 42/42/48 41/41/47
f 37/37/44 38/38/43 44/44/49 43/43/50
f 38/38/43 39/39/45 45/45/51 44/44/49
f 39/39/45 40/40/46 46/46/52 45/45/51
f 40/40/46 41/41/47 47/47/53 46/46/52
f 41/41/47 42/42/48 48/48/54 47/47/53
f 43/43/50 44/44/49 50/50/55 49/49/56
f 44/44/49 45/45/51 51/51/57 50/50/55
f 45/45/51 46/46/52 52/52/58 51/51/57
f 46/46/52 47/47/53 53/53/59 52/52/58
f 47/47/53 48/48/54 54/54/60 53/53/59
f 49/49/56 50/50/55 56/56/61 55/55/62
f 50/50/55 51/51/57 57/57/63 56/56/61
f 51/51/57 52/52/58 58/58/64 57/57/63
f 52/52/58 53/53/59 59/59/65 58/58/64
f 53/53/59 54/54/60 60/60/66 59/59/65
f 55/55/62 56/56/61 62/62/67 61/61/68
f 56/56/61 57/57/63 63/63/69 62/62/67
f 57/57/63 58/58/64 64/64/70 63/63/69
f 58/58/64 59/59/65 65/65/71 64/64/70
f 59/59/65 60/60/66 66/66/72 65/65/71
f 61/61/68 62/62/67 68/68/73 67/67/74
f 62/62/67 63/63/69 69/69/75 68/68/73
f 63/63/69 64/64/70 70/70/76 69/69/75
f 64/64/70 65/65/71 71/71/77 70/70/76
f 65/65/71 66/66/72 72/72/78 71/71/77
s 3
f 67/67/79 68/68/80 74/74/81 73/73/82
f 68/68/80 69/69/83 75/75/84 74/74/81
f 69/69/83 70/70/85 76/76/86 75/75/84
f 70/70/85 71/71/87 77/77/88 76/76/86
f 71/71/87 72/72/89 78/78/90 77/77/88
s 4
f 73/73/91 74/74/92 80/80/93 79/79/94
f 74/74/92 75/75/95 81/81/96 80/80/93
f 75/75/95 76/76/97 82/82/98 81/81/96
f 76/76/97 77/77/99 83/83/100 82/82/98
f 77/77/99 78/78/101 84/84/102 83/83/100
f 79/79/94 80/80/93 86/86/103 85/85/104
f 80/80/93 81/81/96 87/87/105 86/86/103
f 81/81/96 82/82/98 88/88/106 87/87/105
f 82/82/98 83/83/100 89/89/107 88/88/106
f 83/83/100 84/84/102 90/90/108 89/89/107
f 85/85/104 86/86/103 92/92/109 91/91/110
f 86/86/103 87/87/105 93/93/111 92/92/109
f 87/87/105 88/88/106 94/94/112 93/93/111
f 88/88/106 89/89/107 95/95/113 94/94/112
f 89/89/107 90/90/108 96/96/114 95/95/113
f 91/91/110 92/92/109 98/98/115 97/97/116
f 92/92/109 93/93/111 99/99/117 98/98/115
f 93/93/111 94/94/112 100/100/118 99/99/117
f 94/94/112 95/95/113 101/101/119 100/100/118
f 95/95/113 96/96/114 102/102/120 101/101/119
f 97/97/116 98/98/115 104/104/121 103/103/122
f 98/98/115 99/99/117 105/105/123 104/104/121
f 99/99/117 100/100/118 106/106/124 105/105/123
f 100/100/118 101/101/119 107/107/125 106/106/124
f 101/101/119 102/102/120 108/108/126 107/107/125
f 103/103/122 104/104/121 110/110/127 109/109/128
f 104/104/121 105/105/123 111/111/129 110/110/127
f 105/105/123 106/106/124 112/112/130 111/111/129
f 106/106/124 107/107/125 113/113/131 112/112/130
f 107/107/125 108/108/126 114/114/132 113/113/131
f 109/109/128 110/110/127 116/116/133 115/115/134
f 110/110/127 111/111/129 117/117/135 116/116/133
f 111/111/129 112/112/130 118/118/136 117/117/135
f 112/112/130 113/113/131 119/119/137 118/118/136
f 113/113/131 114/114/132 120/120/138 119/119/137
f 115/115/134 116/116/133 122/122/139 121/121/140
f 116/116/133 117/117/135 123/123/141 122/122/139
f 117/117/135 118/118/136 124/124/142 123/123/141
f 118/118/136 119/119/137 125/125/143 124/124/142
f 119/119/137 120/120/138 126/126/144 125/125/143
f 121/121/140 122/122/139 128/128/145 127/127/146
f 122/122/139 123/123/141 129/129/147 128/128/145
f 123/123/141 124/124/142 130/130/148 129/129/147
f 124/124/142 125/125/143 131/131/149 130/130/148
f 125/125/143 126/126/144 132/132/150 131/131/149
f 127/127/146 128/128/145 2/134/151 1/133/152
f 128/128/145 129/129/147 3/135/153 2/134/151
f 129/129/147 130/130/148 4/136/154 3/135/153
f 130/130/148 131/131/149 5/137/155 4/136/154
f 131/131/149 132/132/150 6/138/156 5/137/155
s 5
f 84/140/157 78/139/158 72/149/159 66/150/160
f 90/141/161 84/140/157 66/150/160 60/151/162
f 96/142/163 90/141/161 60/151/162 54/152/164
f 102/143/165 96/142/163 54/152/164 48/153/166
f 108/144/167 102/143/165 48/153/166 42/154/168
f 114/145/169 108/144/167 42/154/168 36/155/170
f 120/146/171 114/145/169 36/155/170 30/156/172
f 126/147/173 120/146/171 30/156/172 24/157/174
f 132/148/175 126/147/173 24/157/174 18/158/176
f 6/6/177 132/148/175 18/158/176 12/12/178
s 6
f 73/159/179 79/160/180 61/170/181 67/169/182
f 79/160/180 85/161/183 55/171/184 61/170/181
f 85/161/183 91/162/185 49/172/186 55/171/184
f 91/162/185 97/163/187 43/173/188 49/172/186
f 97/163/187 103/164/189 37/174/190 43/173/188
f 103/164/189 109/165/191 31/175/192 37/174/190
f 109/165/191 115/166/193 25/176/194 31/175/192
f 115/166/193 121/167/195 19/177/196 25/176/194
f 121/167/195 127/168/197 13/178/198 19/177/196
f 127/168/197 1/1/199 7/7/200 13/178/198
