# This file uses centimeters as units for non-parametric coordinates.

mtllib table low.mtl
g default
v 8.463573 -0.723596 -23.010143
v 8.463573 -0.172640 -23.010143
v -0.520568 -0.172640 -23.010143
v -0.520568 -0.723596 -23.010143
v -0.520568 -0.172640 -9.359834
v 8.463573 -0.172640 -9.359834
v 8.463573 -0.723596 -9.359834
v -0.520568 -0.723595 -9.359834
v -0.520568 -0.172640 -22.011314
v 8.463573 -0.172640 -22.011314
v 8.463573 -0.723596 -22.011314
v -0.520568 -0.723595 -22.011314
v 7.352935 -0.172640 -23.010143
v 7.352935 -0.172640 -22.011314
v 7.352935 -0.172640 -9.359834
v 7.352935 -0.723595 -9.359834
v 7.352935 -0.723595 -22.011314
v 7.352935 -0.723596 -23.010143
v 8.463573 -8.976365 -22.011314
v 7.352935 -8.976365 -22.011314
v 7.352935 -8.976365 -23.010143
v 8.463573 -8.976365 -23.010143
v 8.463573 -0.723596 4.290477
v 8.463573 -0.172640 4.290477
v -0.520568 -0.172640 4.290477
v -0.520568 -0.723596 4.290477
v -0.520568 -0.172640 3.291646
v 8.463573 -0.172640 3.291646
v 8.463573 -0.723596 3.291646
v -0.520568 -0.723595 3.291646
v 7.352935 -0.172640 4.290477
v 7.352935 -0.172640 3.291646
v 7.352935 -0.723595 3.291647
v 7.352935 -0.723596 4.290477
v 8.463573 -8.976365 3.291646
v 7.352935 -8.976365 3.291647
v 7.352935 -8.976365 4.290477
v 8.463573 -8.976365 4.290477
v -9.504709 -0.723596 -23.010143
v -9.504709 -0.172640 -23.010143
v -9.504709 -0.172640 -9.359834
v -9.504709 -0.723596 -9.359834
v -9.504709 -0.172640 -22.011314
v -9.504709 -0.723596 -22.011314
v -8.394072 -0.172640 -23.010143
v -8.394072 -0.172640 -22.011314
v -8.394072 -0.172640 -9.359834
v -8.394072 -0.723595 -9.359834
v -8.394072 -0.723595 -22.011314
v -8.394072 -0.723596 -23.010143
v -9.504709 -8.976365 -22.011314
v -8.394072 -8.976365 -22.011314
v -8.394072 -8.976365 -23.010143
v -9.504709 -8.976365 -23.010143
v -9.504709 -0.723596 4.290477
v -9.504709 -0.172640 4.290477
v -9.504709 -0.172640 3.291646
v -9.504709 -0.723596 3.291646
v -8.394072 -0.172640 4.290477
v -8.394072 -0.172640 3.291646
v -8.394072 -0.723595 3.291647
v -8.394072 -0.723596 4.290477
v -9.504709 -8.976365 3.291646
v -8.394072 -8.976365 3.291647
v -8.394072 -8.976365 4.290477
v -9.504709 -8.976365 4.290477
vt 0.488385 0.963340
vt 0.510637 0.963340
vt 0.803999 0.410414
vt 0.361091 0.960489
vt 0.340991 0.942412
vt 0.361091 0.942412
vt 0.488385 0.777983
vt 0.530366 0.797994
vt 0.510637 0.797994
vt 0.488385 0.797994
vt 0.488385 0.612637
vt 0.340991 0.713444
vt 0.361091 0.713444
vt 0.646058 0.404518
vt 0.269244 0.200745
vt 0.530366 0.963340
vt 0.888245 0.410414
vt 0.198495 0.942412
vt 0.198495 0.713444
vt 0.184997 0.200745
vt 0.184997 0.065375
vt 0.184997 0.054688
vt 0.442267 0.963340
vt 0.500000 0.410413
vt 0.488116 0.410413
vt 0.420015 0.963340
vt 0.361091 0.484476
vt 0.340991 0.484476
vt 0.459660 0.797994
vt 0.442267 0.797994
vt 0.420015 0.797994
vt 0.420015 0.777983
vt 0.459660 0.963340
vt 0.420015 0.612637
vt 0.198495 0.484476
vt 0.198495 0.466399
vt 0.184998 0.336115
vt 0.403870 0.404518
vt 0.675207 0.608050
vt 0.015625 0.410413
vt 0.972491 0.410414
vt 0.720675 0.965247
vt 0.035899 0.942412
vt 0.056000 0.942412
vt 0.675207 0.796840
vt 0.675207 0.776458
vt 0.697870 0.776458
vt 0.697871 0.796840
vt 0.675207 0.965247
vt 0.161683 0.410413
vt 0.056000 0.713444
vt 0.088868 0.200745
vt 0.697871 0.965247
vt 0.100752 0.200745
vt 0.572494 0.961448
vt 0.594865 0.961448
vt 0.319624 0.410413
vt 0.035899 0.466399
vt 0.056000 0.484476
vt 0.035899 0.484476
vt 0.572494 0.775093
vt 0.614145 0.795212
vt 0.594865 0.795212
vt 0.572494 0.795212
vt 0.572494 0.608857
vt 0.614145 0.961448
vt 0.056000 0.466399
vt 0.403870 0.410413
vt 0.297053 0.410413
vt 0.035899 0.713444
vt 0.307740 0.410413
vt 0.056000 0.960489
vt 0.198495 0.960489
vt 0.026312 0.410413
vt 0.035899 0.960489
vt 0.340991 0.466399
vt 0.510687 0.410413
vt 0.646058 0.410413
vt 0.361091 0.466399
vt 0.340991 0.960489
vt 0.781428 0.410414
vt 0.792115 0.410414
vt 0.319624 0.404518
vt 0.184998 0.346803
vt 0.297053 0.404518
vt 0.307740 0.404518
vt 0.161683 0.404518
vt 0.972491 0.404518
vt 0.888245 0.404518
vt 0.026312 0.404518
vt 0.984375 0.404518
vt 0.488116 0.404518
vt 0.510687 0.404518
vt 0.500000 0.404518
vt 0.281127 0.200745
vt 0.803999 0.404518
vt 0.781428 0.404518
vt 0.792115 0.404518
vt 0.015625 0.404518
vt 0.984375 0.410414
vt 0.442267 0.777983
vt 0.397385 0.797994
vt 0.281127 0.336115
vt 0.269244 0.336115
vt 0.397385 0.963340
vt 0.269244 0.346803
vt 0.442267 0.612637
vt 0.100752 0.336115
vt 0.100752 0.346803
vt 0.088868 0.336115
vt 0.551534 0.795212
vt 0.594865 0.775093
vt 0.594865 0.608857
vt 0.551534 0.961448
vt 0.269244 0.065375
vt 0.269244 0.054688
vt 0.281127 0.065375
vt 0.468091 0.797994
vt 0.510637 0.777983
vt 0.510637 0.612637
vt 0.468091 0.963340
vt 0.100751 0.065375
vt 0.100751 0.054688
vt 0.088868 0.065375
vt 0.657246 0.796840
vt 0.657246 0.965247
vt 0.720675 0.796840
vt 0.697870 0.608050
vn 0.000000 0.000000 -1.000000
vn 0.000000 0.000000 -1.000000
vn 0.000000 0.000000 -1.000000
vn 0.000000 0.000000 -1.000000
vn 0.000000 1.000000 -0.000000
vn 0.000000 1.000000 -0.000000
vn 0.000000 1.000000 -0.000000
vn 0.000000 1.000000 -0.000000
vn 0.000000 -1.000000 0.000000
vn 0.000000 -1.000000 0.000000
vn 0.000000 -1.000000 0.000000
vn 0.000000 -1.000000 0.000000
vn 1.000000 0.000000 0.000000
vn 1.000000 0.000000 0.000000
vn 1.000000 0.000000 0.000000
vn 1.000000 0.000000 0.000000
vn 0.000000 1.000000 0.000000
vn 0.000000 1.000000 0.000000
vn 1.000000 0.000000 0.000000
vn 1.000000 0.000000 0.000000
vn -0.000000 -1.000000 0.000000
vn -0.000000 -1.000000 0.000000
vn -0.000000 -1.000000 0.000000
vn -0.000000 -1.000000 0.000000
vn 0.000000 1.000000 -0.000000
vn 0.000000 1.000000 -0.000000
vn 0.000000 1.000000 0.000000
vn 0.000000 -1.000000 0.000000
vn 0.000000 -1.000000 0.000000
vn 0.000000 -1.000000 0.000000
vn 0.000000 -1.000000 0.000000
vn 0.000000 0.000000 -1.000000
vn 0.000000 0.000000 -1.000000
vn 0.000000 0.000000 1.000000
vn 0.000000 0.000000 1.000000
vn 0.000000 0.000000 1.000000
vn 0.000000 0.000000 1.000000
vn -1.000000 0.000000 0.000000
vn -1.000000 0.000000 0.000000
vn -1.000000 0.000000 0.000000
vn -1.000000 0.000000 0.000000
vn 0.000000 0.000000 -1.000000
vn 0.000000 0.000000 -1.000000
vn 0.000000 0.000000 -1.000000
vn 0.000000 0.000000 -1.000000
vn 1.000000 0.000000 0.000000
vn 1.000000 0.000000 0.000000
vn 1.000000 0.000000 0.000000
vn 1.000000 0.000000 0.000000
vn 0.000000 0.000000 1.000000
vn 0.000000 0.000000 1.000000
vn 0.000000 0.000000 1.000000
vn 0.000000 0.000000 1.000000
vn 0.000000 1.000000 0.000000
vn 0.000000 1.000000 0.000000
vn 0.000000 1.000000 0.000000
vn 0.000000 1.000000 0.000000
vn 0.000000 -1.000000 0.000000
vn 0.000000 -1.000000 0.000000
vn 0.000000 -1.000000 0.000000
vn 0.000000 -1.000000 0.000000
vn 1.000000 0.000000 0.000000
vn 1.000000 0.000000 0.000000
vn 1.000000 0.000000 0.000000
vn 1.000000 0.000000 0.000000
vn -0.000000 -1.000000 0.000000
vn -0.000000 -1.000000 -0.000000
vn 0.000000 1.000000 0.000000
vn 0.000000 1.000000 0.000000
vn 0.000000 -1.000000 -0.000000
vn 0.000000 -1.000000 -0.000000
vn 0.000000 -1.000000 -0.000000
vn 0.000000 0.000000 1.000000
vn 0.000000 0.000000 1.000000
vn -0.000001 0.000000 -1.000000
vn -0.000001 0.000000 -1.000000
vn -0.000001 0.000000 -1.000000
vn -0.000001 0.000000 -1.000000
vn -1.000000 0.000000 0.000000
vn -1.000000 0.000000 0.000000
vn -1.000000 0.000000 0.000000
vn -1.000000 0.000000 0.000000
vn 0.000000 0.000000 1.000000
vn 0.000000 0.000000 1.000000
vn 0.000000 0.000000 1.000000
vn 0.000000 0.000000 1.000000
vn 1.000000 0.000000 0.000000
vn 1.000000 0.000000 0.000000
vn 1.000000 0.000000 0.000000
vn 1.000000 0.000000 0.000000
vn 0.000000 0.000000 -1.000000
vn 0.000000 0.000000 -1.000000
vn 0.000000 0.000000 -1.000000
vn 0.000000 0.000000 -1.000000
vn -0.000000 1.000000 -0.000000
vn -0.000000 1.000000 -0.000000
vn -0.000000 1.000000 -0.000000
vn -0.000000 1.000000 -0.000000
vn 0.000000 -1.000000 0.000000
vn 0.000000 -1.000000 0.000000
vn 0.000000 -1.000000 0.000000
vn 0.000000 -1.000000 0.000000
vn -1.000000 0.000000 0.000000
vn -1.000000 0.000000 0.000000
vn -1.000000 0.000000 0.000000
vn -1.000000 0.000000 0.000000
vn -0.000000 1.000000 0.000000
vn -0.000000 1.000000 0.000000
vn -1.000000 0.000000 0.000000
vn -1.000000 0.000000 0.000000
vn 0.000000 -1.000000 0.000000
vn 0.000000 -1.000000 0.000000
vn 0.000000 -1.000000 0.000000
vn 0.000000 -1.000000 0.000000
vn 0.000000 1.000000 -0.000000
vn 0.000000 1.000000 -0.000000
vn 0.000000 1.000000 0.000000
vn 0.000000 -1.000000 0.000000
vn 0.000000 -1.000000 0.000000
vn 0.000000 -1.000000 0.000000
vn 0.000000 -1.000000 0.000000
vn 0.000000 0.000000 -1.000000
vn 0.000000 0.000000 -1.000000
vn -0.000000 0.000000 1.000000
vn -0.000000 0.000000 1.000000
vn -0.000000 0.000000 1.000000
vn -0.000000 0.000000 1.000000
vn 1.000000 0.000000 0.000000
vn 1.000000 0.000000 0.000000
vn 1.000000 0.000000 0.000000
vn 1.000000 0.000000 0.000000
vn 0.000000 0.000000 -1.000000
vn 0.000000 0.000000 -1.000000
vn 0.000000 0.000000 -1.000000
vn 0.000000 0.000000 -1.000000
vn -1.000000 0.000000 0.000000
vn -1.000000 0.000000 0.000000
vn -1.000000 0.000000 0.000000
vn -1.000000 0.000000 0.000000
vn 0.000000 0.000000 1.000000
vn 0.000000 0.000000 1.000000
vn 0.000000 0.000000 1.000000
vn 0.000000 0.000000 1.000000
vn -0.000000 1.000000 0.000000
vn -0.000000 1.000000 0.000000
vn -0.000000 1.000000 0.000000
vn -0.000000 1.000000 0.000000
vn 0.000000 -1.000000 0.000000
vn 0.000000 -1.000000 0.000000
vn 0.000000 -1.000000 0.000000
vn 0.000000 -1.000000 0.000000
vn -1.000000 0.000000 0.000000
vn -1.000000 0.000000 0.000000
vn -1.000000 0.000000 0.000000
vn -1.000000 0.000000 0.000000
vn 0.000000 -1.000000 -0.000000
vn 0.000000 -1.000000 0.000000
vn 0.000000 1.000000 0.000000
vn 0.000000 1.000000 0.000000
vn -0.000000 -1.000000 -0.000000
vn -0.000000 -1.000000 -0.000000
vn -0.000000 -1.000000 -0.000000
vn 0.000000 0.000000 1.000000
vn 0.000000 0.000000 1.000000
vn 0.000001 0.000000 -1.000000
vn 0.000001 0.000000 -1.000000
vn 0.000001 0.000000 -1.000000
vn 0.000001 0.000000 -1.000000
vn 1.000000 0.000000 0.000000
vn 1.000000 0.000000 0.000000
vn 1.000000 0.000000 0.000000
vn 1.000000 0.000000 0.000000
vn 0.000000 0.000000 1.000000
vn 0.000000 0.000000 1.000000
vn 0.000000 0.000000 1.000000
vn 0.000000 0.000000 1.000000
vn -1.000000 0.000000 0.000000
vn -1.000000 0.000000 0.000000
vn -1.000000 0.000000 0.000000
vn -1.000000 0.000000 0.000000
s 1
g table_low
usemtl lambert19SG
f 1/98/1 18/96/2 13/3/3 2/82/4
s 2
f 2/4/5 13/80/6 14/5/7 10/6/8
s off
f 19/7/9 20/119/10 21/9/11 22/10/12
s 3
f 11/97/13 1/98/14 2/82/15 10/81/16
s 2
f 10/6/8 14/5/7 15/12/17 6/13/18
s 3
f 7/14/19 11/97/13 10/81/16 6/78/20
s 4
f 7/95/21 16/15/22 17/115/23 11/117/24
s 2
f 13/80/6 3/73/25 9/18/26 14/5/7
f 15/12/17 14/5/7 9/18/26 5/19/27
s 4
f 17/115/23 16/15/22 8/20/28 12/21/29
f 18/116/30 17/115/23 12/21/29 4/22/31
s 1
f 13/3/3 18/96/2 4/89/32 3/17/33
s off
f 11/11/34 17/120/35 20/119/36 19/7/37
f 17/16/38 18/2/39 21/9/40 20/8/41
f 18/2/42 1/1/43 22/10/44 21/9/45
f 1/1/46 11/121/47 19/118/48 22/10/49
s 5
f 23/94/50 24/24/51 31/25/52 34/92/53
s 2
f 24/79/54 28/27/55 32/28/56 31/76/57
s off
f 35/101/58 38/30/59 37/31/60 36/32/61
s 3
f 29/93/62 28/77/63 24/24/64 23/94/65
s 2
f 28/27/55 6/13/18 15/12/17 32/28/56
s 3
f 7/14/19 6/78/20 28/77/63 29/93/62
s 4
f 7/95/21 29/103/66 33/104/67 16/15/22
s 2
f 31/76/57 32/28/56 27/35/68 25/36/69
f 15/12/17 5/19/27 27/35/68 32/28/56
s 4
f 33/104/67 30/37/70 8/20/28 16/15/22
f 34/106/71 26/84/72 30/37/70 33/104/67
s 5
f 31/25/52 25/68/73 26/38/74 34/92/53
s off
f 29/107/75 35/101/76 36/32/77 33/34/78
f 33/105/79 36/102/80 37/31/81 34/26/82
f 34/26/83 37/31/84 38/30/85 23/23/86
f 23/23/87 38/30/88 35/29/89 29/33/90
s 6
f 39/91/91 40/100/92 45/41/93 50/88/94
s 7
f 40/75/95 43/43/96 46/44/97 45/72/98
s off
f 51/45/99 54/46/100 53/47/101 52/48/102
s 8
f 44/90/103 43/74/104 40/40/105 39/99/106
s 7
f 43/43/96 41/70/107 47/51/108 46/44/97
s 8
f 42/87/109 41/50/110 43/74/104 44/90/103
s 9
f 42/52/111 44/124/112 49/122/113 48/54/114
s 7
f 45/72/98 46/44/97 9/18/115 3/73/116
f 47/51/108 5/19/117 9/18/115 46/44/97
s 9
f 49/122/113 12/21/118 8/20/119 48/54/114
f 50/123/120 4/22/121 12/21/118 49/122/113
s 6
f 45/41/93 3/17/122 4/89/123 50/88/94
s off
f 44/49/124 51/45/125 52/48/126 49/53/127
f 49/53/128 52/48/129 53/127/130 50/42/131
f 50/128/132 53/47/133 54/46/134 39/39/135
f 39/126/136 54/125/137 51/45/138 44/49/139
s 10
f 55/86/140 62/83/141 59/57/142 56/71/143
s 7
f 56/58/144 59/67/145 60/59/146 57/60/147
s off
f 63/61/148 64/112/149 65/63/150 66/64/151
s 8
f 58/85/152 55/86/153 56/71/154 57/69/155
s 7
f 57/60/147 60/59/146 47/51/108 41/70/107
s 8
f 42/87/109 58/85/152 57/69/155 41/50/110
s 9
f 42/52/111 48/54/114 61/108/156 58/110/157
s 7
f 59/67/145 25/36/158 27/35/159 60/59/146
f 47/51/108 60/59/146 27/35/159 5/19/117
s 9
f 61/108/156 48/54/114 8/20/119 30/37/160
f 62/109/161 61/108/156 30/37/160 26/84/162
s 10
f 59/57/142 62/83/141 26/38/163 25/68/164
s off
f 58/65/165 61/113/166 64/112/167 63/61/168
f 61/66/169 62/56/170 65/63/171 64/62/172
f 62/56/173 55/55/174 66/64/175 65/63/176
f 55/55/177 58/114/178 63/111/179 66/64/180
